<?xml version="1.0" encoding="UTF-8" standalone="no"?>
<!-- Created with Inkscape (http://www.inkscape.org/) -->

<svg
   xmlns:dc="http://purl.org/dc/elements/1.1/"
   xmlns:cc="http://creativecommons.org/ns#"
   xmlns:rdf="http://www.w3.org/1999/02/22-rdf-syntax-ns#"
   xmlns:svg="http://www.w3.org/2000/svg"
   xmlns="http://www.w3.org/2000/svg"
   xmlns:sodipodi="http://sodipodi.sourceforge.net/DTD/sodipodi-0.dtd"
   xmlns:inkscape="http://www.inkscape.org/namespaces/inkscape"
   width="360.01785"
   height="359.98572"
   id="svg2"
   version="1.1"
   inkscape:version="0.48.0 r9654"
   sodipodi:docname="New document 1">
  <defs
     id="defs4" />
  <sodipodi:namedview
     id="base"
     pagecolor="#ffffff"
     bordercolor="#666666"
     borderopacity="1.0"
     inkscape:pageopacity="0.0"
     inkscape:pageshadow="2"
     inkscape:zoom="0.54830148"
     inkscape:cx="394.10281"
     inkscape:cy="158.65089"
     inkscape:document-units="px"
     inkscape:current-layer="layer1"
     showgrid="false"
     fit-margin-top="30"
     fit-margin-left="30"
     fit-margin-right="30"
     fit-margin-bottom="30"
     inkscape:window-width="1440"
     inkscape:window-height="852"
     inkscape:window-x="0"
     inkscape:window-y="0"
     inkscape:window-maximized="0" />
  <metadata
     id="metadata7">
    <rdf:RDF>
      <cc:Work
         rdf:about="">
        <dc:format>image/svg+xml</dc:format>
        <dc:type
           rdf:resource="http://purl.org/dc/dcmitype/StillImage" />
        <dc:title></dc:title>
      </cc:Work>
    </rdf:RDF>
  </metadata>
  <g
     inkscape:label="Layer 1"
     inkscape:groupmode="layer"
     id="layer1"
     transform="translate(-192.04736,-346.19489)">
    <g
       id="g3765"
       transform="matrix(1.850327,0,0,1.831972,-320.97877,-437.75905)">
      <g
         transform="matrix(10.537845,0,0,10.537845,2600.4817,-3653.4053)"
         style="font-size:40px;font-style:normal;font-weight:normal;line-height:125%;letter-spacing:0px;word-spacing:0px;fill:#000000;fill-opacity:1;stroke:none;font-family:Sans"
         id="flowRoot2987">
        <path
           d="m -209.80469,393.43882 c -1e-5,0.14324 -0.0521,0.27345 -0.15625,0.39063 -0.10417,0.10418 -0.22787,0.15626 -0.37109,0.15625 -0.1172,10e-6 -0.2409,-0.0325 -0.37109,-0.0977 -0.13022,-0.0781 -0.27996,-0.16275 -0.44922,-0.2539 -0.15626,-0.0911 -0.34506,-0.16926 -0.56641,-0.23438 -0.20834,-0.0781 -0.44923,-0.11718 -0.72266,-0.11719 -0.63802,10e-6 -1.21094,0.20184 -1.71875,0.60547 -0.49479,0.39064 -0.91797,0.87892 -1.26953,1.46485 -0.33854,0.58594 -0.59896,1.21094 -0.78125,1.875 -0.18229,0.66406 -0.27344,1.26302 -0.27343,1.79687 -10e-6,0.37761 0.0325,0.7487 0.0977,1.11328 0.0651,0.35157 0.17578,0.67709 0.33203,0.97657 0.16927,0.28646 0.39713,0.52083 0.6836,0.70312 0.28645,0.16927 0.65103,0.25391 1.09375,0.25391 0.46874,0 0.91796,-0.0846 1.34765,-0.25391 0.42968,-0.18229 0.83333,-0.41666 1.21094,-0.70312 0.013,-0.41667 0.0781,-0.85287 0.19531,-1.3086 0.1302,-0.46874 0.29296,-0.92447 0.48828,-1.36719 0.19531,-0.45572 0.41666,-0.88541 0.66407,-1.28906 0.2604,-0.40364 0.52733,-0.76171 0.80078,-1.07422 l 0.2539,0.15625 c -0.14324,0.44272 -0.2474,0.89845 -0.3125,1.36719 -0.0651,0.46876 -0.0977,0.93099 -0.0977,1.38672 -1e-5,0.46875 0.0391,0.91146 0.11719,1.32812 0.0781,0.41667 0.21483,0.78126 0.41015,1.09375 0.1953,0.29949 0.46223,0.54037 0.80078,0.72266 0.33853,0.16927 0.77473,0.25391 1.3086,0.25391 0.65102,0 1.24998,-0.14974 1.79687,-0.44922 0.54686,-0.29948 1.02863,-0.67708 1.44531,-1.13281 l 0.15625,0.0781 c -0.23439,0.45573 -0.54038,0.89193 -0.91796,1.30859 -0.37762,0.41667 -0.8008,0.79428 -1.26954,1.13282 -0.45574,0.32552 -0.94402,0.58593 -1.46484,0.78125 -0.52085,0.19531 -1.03517,0.29296 -1.54297,0.29297 -0.71615,-1e-5 -1.30209,-0.20834 -1.75781,-0.625 -0.45574,-0.40365 -0.76824,-0.91797 -0.9375,-1.54297 -0.54688,0.54687 -1.15886,1.00911 -1.83594,1.38672 -0.66407,0.36458 -1.36719,0.54687 -2.10937,0.54687 -0.54688,0 -1.03516,-0.10417 -1.46485,-0.3125 -0.41667,-0.19531 -0.76823,-0.46224 -1.05468,-0.80078 -0.28646,-0.33854 -0.50782,-0.73568 -0.66407,-1.19141 -0.14323,-0.46875 -0.21484,-0.95703 -0.21484,-1.46484 0,-0.58593 0.0911,-1.18489 0.27344,-1.79688 0.19531,-0.62499 0.45572,-1.23697 0.78125,-1.83593 0.33854,-0.59895 0.73567,-1.16536 1.1914,-1.69922 0.45573,-0.53385 0.95052,-1.0026 1.48438,-1.40625 0.54687,-0.40364 1.11978,-0.72265 1.71875,-0.95703 0.59895,-0.23437 1.21093,-0.35155 1.83594,-0.35157 0.14322,2e-5 0.319,0.0195 0.52734,0.0586 0.20832,0.026 0.41015,0.0781 0.60547,0.15625 0.1953,0.0781 0.35806,0.18881 0.48828,0.33203 0.14322,0.14324 0.21483,0.32553 0.21484,0.54687"
           style="font-variant:normal;font-stretch:normal;font-family:Montez;-inkscape-font-specification:Montez"
           id="path3773"
           inkscape:connector-curvature="0" />
      </g>
      <path
         transform="matrix(0.19152018,0,0,0.19152018,506.22965,351.801)"
         inkscape:transform-center-x="-7.3884668"
         d="m -274.25928,626.64789 -115.73412,66.81913 -115.73412,66.81912 0,-133.63826 0,-133.63825 115.73412,66.81913 z"
         inkscape:randomized="0"
         inkscape:rounded="0"
         inkscape:flatsided="false"
         sodipodi:arg2="1.0471976"
         sodipodi:arg1="0"
         sodipodi:r2="77.156082"
         sodipodi:r1="154.31216"
         sodipodi:cy="626.64789"
         sodipodi:cx="-428.57144"
         sodipodi:sides="3"
         id="path2995"
         style="fill:#000000;fill-opacity:1;stroke:#000000;stroke-width:20;stroke-linecap:round;stroke-linejoin:round;stroke-miterlimit:4;stroke-opacity:1;stroke-dasharray:none;stroke-dashoffset:2.4"
         sodipodi:type="star" />
    </g>
  </g>
</svg>
